<svg width="244" height="252" viewBox="0 0 244 252" fill="none" xmlns="http://www.w3.org/2000/svg">
<ellipse cx="164.617" cy="79.8628" rx="50.5263" ry="50.8718" fill="#FEE04A"/>
<path d="M164.617 3.55515V156.171" stroke="#FEE04A" stroke-width="6" stroke-linecap="round" stroke-linejoin="round" stroke-dasharray="24 24"/>
<path d="M218.208 25.9052L111.026 133.821" stroke="#FEE04A" stroke-width="6" stroke-linecap="round" stroke-linejoin="round" stroke-dasharray="24 24"/>
<path d="M111.026 25.9052L218.209 133.821" stroke="#FEE04A" stroke-width="6" stroke-linecap="round" stroke-linejoin="round" stroke-dasharray="24 24"/>
<path d="M88.8279 79.8629L240.407 79.8629" stroke="#FEE04A" stroke-width="6" stroke-linecap="round" stroke-linejoin="round" stroke-dasharray="24 24"/>
<path d="M32.0068 207.042C-13.1887 202.44 -7.92111 128.195 35.1813 127.6C27.8398 48.0255 119.318 31.1331 135.094 87.8777C177.223 65.328 198.285 91.3475 203.455 116.25C256.04 127.599 248.407 203.555 218.12 207.042H32.0068Z" fill="#96D6FA"/>
<path d="M183.565 219.76C183.565 230.296 175.082 238.837 164.617 238.837C154.153 238.837 145.67 230.296 145.67 219.76C145.67 209.224 164.617 175.247 164.617 175.247C164.617 175.247 183.565 209.224 183.565 219.76Z" fill="#5B9BFC"/>
<path d="M139.354 168.888C139.354 179.424 130.871 187.965 120.407 187.965C109.942 187.965 101.459 179.424 101.459 168.888C101.459 158.353 120.407 124.376 120.407 124.376C120.407 124.376 139.354 158.353 139.354 168.888Z" fill="#5B9BFC"/>
<path d="M95.1436 232.478C95.1436 243.014 86.6606 251.555 76.1963 251.555C65.7319 251.555 57.2489 243.014 57.2489 232.478C57.2489 221.942 76.1963 187.965 76.1963 187.965C76.1963 187.965 95.1436 221.942 95.1436 232.478Z" fill="#5B9BFC"/>
</svg>
