<svg width="11" height="14" viewBox="0 0 11 14" fill="none" xmlns="http://www.w3.org/2000/svg">
<path d="M9.66685 5.21514C9.66685 7.98181 6.96685 11.3085 5.86685 12.5485C5.62018 12.8218 5.19352 12.8218 4.94685 12.5485C3.84685 11.3085 1.14685 7.98181 1.14685 5.21514C1.14685 2.86181 3.05352 0.955139 5.40685 0.955139C7.76018 0.955139 9.66685 2.86181 9.66685 5.21514Z" stroke="white" stroke-miterlimit="10" stroke-linecap="round" stroke-linejoin="round"/>
<path d="M5.40021 6.92182C6.34278 6.92182 7.10688 6.15772 7.10688 5.21515C7.10688 4.27258 6.34278 3.50848 5.40021 3.50848C4.45764 3.50848 3.69354 4.27258 3.69354 5.21515C3.69354 6.15772 4.45764 6.92182 5.40021 6.92182Z" stroke="white" stroke-miterlimit="10" stroke-linecap="round" stroke-linejoin="round"/>
</svg>
