<svg width="21" height="21" viewBox="0 0 21 21" fill="none" xmlns="http://www.w3.org/2000/svg">
<path d="M20.4069 15.5551C20.4069 17.212 19.0637 18.5551 17.4069 18.5551C15.75 18.5551 14.4069 17.212 14.4069 15.5551C14.4069 13.8983 17.4069 8.55515 17.4069 8.55515C17.4069 8.55515 20.4069 13.8983 20.4069 15.5551Z" fill="#5B9BFC"/>
<path d="M13.4069 7.55515C13.4069 9.212 12.0637 10.5551 10.4069 10.5551C8.75001 10.5551 7.40686 9.212 7.40686 7.55515C7.40686 5.89829 10.4069 0.555145 10.4069 0.555145C10.4069 0.555145 13.4069 5.89829 13.4069 7.55515Z" fill="#5B9BFC"/>
<path d="M6.40686 17.5551C6.40686 19.212 5.06371 20.5551 3.40686 20.5551C1.75001 20.5551 0.40686 19.212 0.40686 17.5551C0.40686 15.8983 3.40686 10.5551 3.40686 10.5551C3.40686 10.5551 6.40686 15.8983 6.40686 17.5551Z" fill="#5B9BFC"/>
</svg>
