<svg width="265" height="133" viewBox="0 0 265 133" fill="none" xmlns="http://www.w3.org/2000/svg">
<path d="M115.487 94.9391C113.908 94.9391 112.543 94.6618 111.391 94.1071C110.239 93.5311 109.322 92.7525 108.639 91.7711C107.978 90.7685 107.572 89.6378 107.423 88.3791H110.751C110.964 89.4458 111.498 90.3311 112.351 91.0351C113.204 91.7178 114.26 92.0591 115.519 92.0591C116.458 92.0591 117.268 91.8351 117.951 91.3871C118.634 90.9178 119.167 90.2991 119.551 89.5311C119.935 88.7631 120.127 87.8991 120.127 86.9391C120.127 85.4245 119.7 84.2191 118.847 83.3231C117.994 82.4058 116.916 81.9471 115.615 81.9471C114.506 81.9471 113.556 82.2138 112.767 82.7471C111.978 83.2591 111.402 83.9098 111.039 84.6991H107.807L109.727 72.1551H121.823V75.1311H112.287L111.135 81.1151C111.626 80.5605 112.298 80.1018 113.151 79.7391C114.026 79.3551 115.007 79.1631 116.095 79.1631C117.61 79.1631 118.911 79.5151 119.999 80.2191C121.087 80.9018 121.919 81.8298 122.495 83.0031C123.092 84.1765 123.391 85.4778 123.391 86.9071C123.391 88.4005 123.071 89.7551 122.431 90.9711C121.791 92.1871 120.874 93.1578 119.679 93.8831C118.506 94.5871 117.108 94.9391 115.487 94.9391ZM139.78 82.8431C138.777 82.8431 137.871 82.6191 137.06 82.1711C136.271 81.7231 135.641 81.0938 135.172 80.2831C134.703 79.4511 134.468 78.4591 134.468 77.3071C134.468 76.1765 134.703 75.2058 135.172 74.3951C135.641 73.5631 136.281 72.9231 137.092 72.4751C137.903 72.0271 138.809 71.8031 139.812 71.8031C140.793 71.8031 141.679 72.0271 142.468 72.4751C143.279 72.9231 143.919 73.5631 144.388 74.3951C144.857 75.2058 145.092 76.1765 145.092 77.3071C145.092 78.4591 144.857 79.4511 144.388 80.2831C143.919 81.0938 143.279 81.7231 142.468 82.1711C141.679 82.6191 140.783 82.8431 139.78 82.8431ZM138.18 94.5551L151.012 72.1551H154.34L141.54 94.5551H138.18ZM139.78 80.4111C140.463 80.4111 141.049 80.1551 141.54 79.6431C142.052 79.1098 142.308 78.3311 142.308 77.3071C142.308 76.2831 142.063 75.5151 141.572 75.0031C141.081 74.4698 140.484 74.2031 139.78 74.2031C139.097 74.2031 138.5 74.4698 137.988 75.0031C137.476 75.5151 137.22 76.2831 137.22 77.3071C137.22 78.3311 137.465 79.1098 137.956 79.6431C138.468 80.1551 139.076 80.4111 139.78 80.4111ZM152.932 94.9391C151.929 94.9391 151.023 94.7151 150.212 94.2671C149.423 93.8191 148.793 93.1898 148.324 92.3791C147.855 91.5471 147.62 90.5551 147.62 89.4031C147.62 88.2725 147.855 87.2911 148.324 86.4591C148.793 85.6271 149.433 84.9871 150.244 84.5391C151.055 84.0911 151.961 83.8671 152.964 83.8671C153.945 83.8671 154.831 84.0911 155.62 84.5391C156.431 84.9871 157.071 85.6271 157.54 86.4591C158.009 87.2911 158.244 88.2725 158.244 89.4031C158.244 90.5551 158.009 91.5471 157.54 92.3791C157.071 93.1898 156.431 93.8191 155.62 94.2671C154.831 94.7151 153.935 94.9391 152.932 94.9391ZM152.932 92.4751C153.615 92.4751 154.201 92.2191 154.692 91.7071C155.204 91.1951 155.46 90.4271 155.46 89.4031C155.46 88.3791 155.215 87.6111 154.724 87.0991C154.233 86.5658 153.636 86.2991 152.932 86.2991C152.249 86.2991 151.652 86.5658 151.14 87.0991C150.628 87.6111 150.372 88.3791 150.372 89.4031C150.372 90.4271 150.617 91.1951 151.108 91.7071C151.62 92.2191 152.228 92.4751 152.932 92.4751Z" fill="#5B9BFC"/>
<path d="M252.407 132.555C252.407 116.797 249.303 101.192 243.272 86.6331C237.242 72.0741 228.403 58.8454 217.26 47.7023C206.117 36.5593 192.888 27.7202 178.329 21.6896C163.77 15.659 148.165 12.5551 132.407 12.5551C116.648 12.5551 101.044 15.659 86.4848 21.6896C71.9258 27.7202 58.6971 36.5593 47.554 47.7023C36.411 58.8454 27.5719 72.0741 21.5413 86.6331C15.5107 101.192 12.4069 116.797 12.4069 132.555" stroke="#F2F2F2" stroke-width="24"/>
<path d="M132.407 12.5551C116.648 12.5551 101.044 15.659 86.4848 21.6896C71.9258 27.7202 58.6971 36.5593 47.554 47.7023C36.411 58.8454 27.5719 72.0741 21.5413 86.6331C15.5107 101.192 12.4069 116.797 12.4069 132.555" stroke="#5B9BFC" stroke-width="24"/>
</svg>
