<svg width="41" height="41" viewBox="0 0 41 41" fill="none" xmlns="http://www.w3.org/2000/svg">
<circle cx="20.4069" cy="20.5551" r="20" fill="#F2F7FF"/>
<path d="M26.7969 18.5451C26.7969 22.6951 22.7469 27.6851 21.0969 29.5451C20.7269 29.9551 20.0869 29.9551 19.7169 29.5451C18.0669 27.6851 14.0169 22.6951 14.0169 18.5451C14.0169 15.0151 16.8769 12.1551 20.4069 12.1551C23.9369 12.1551 26.7969 15.0151 26.7969 18.5451Z" fill="#5B9BFC"/>
<path d="M20.3969 21.1051C21.8107 21.1051 22.9569 19.959 22.9569 18.5451C22.9569 17.1313 21.8107 15.9851 20.3969 15.9851C18.983 15.9851 17.8369 17.1313 17.8369 18.5451C17.8369 19.959 18.983 21.1051 20.3969 21.1051Z" fill="white"/>
</svg>
