<?xml version="1.0" encoding="utf-8"?>
<!-- Generator: Adobe Illustrator 21.1.0, SVG Export Plug-In . SVG Version: 6.00 Build 0)  -->
<svg version="1.1" id="Layer_1" xmlns="http://www.w3.org/2000/svg" xmlns:xlink="http://www.w3.org/1999/xlink" x="0px" y="0px"
	 viewBox="0 0 64 64" style="enable-background:new 0 0 64 64;" xml:space="preserve">
<style type="text/css">
	.st0{fill:#57CEF3;}
	.st1{fill-rule:evenodd;clip-rule:evenodd;fill:#0779E4;}
	.st2{fill-rule:evenodd;clip-rule:evenodd;fill:#FFFFFF;}
</style>
<g id="Water-Drop">
	<path class="st0" d="M54,36c0,12.4-9.8,22-22,22c-12.2,0-22-9.6-22-22c0-12.4,7.3-18.2,22-33.1C46.7,17.8,54,23.6,54,36z"/>
	<path class="st1" d="M17.1,21.6C13.6,26.2,12,30.3,12,36c0,11.3,8.9,14,20,14c11.1,0,20-2.7,20-14c0-5.7-1.6-9.8-5.1-14.4
		c-2.8-3.7-6.6-7.5-11.7-12.6c-1-1-2.1-2.1-3.2-3.3c-1.1,1.1-2.2,2.2-3.2,3.3C23.7,14.1,19.9,17.9,17.1,21.6z M32,0l1.4,1.5
		C35,3.1,36.5,4.6,37.9,6c5.1,5.1,9.2,9.3,12.2,13.2C54,24.3,56,29.3,56,36c0,13.5-10.8,24-24,24C18.8,60,8,49.5,8,36
		c0-6.7,2-11.7,5.9-16.8c2.9-3.9,7.1-8,12.2-13.2c1.4-1.4,2.9-2.9,4.5-4.6L32,0z"/>
	<path class="st2" d="M27.6,15.6c0.5-0.5,1.1-1.1,1.6-1.6l2.8,2.9c-0.6,0.6-1.1,1.1-1.7,1.7c-2.2,2.2-4.5,4.5-6.4,7
		C21.6,28.8,20,32.2,20,36h-4c0-5.1,2.1-9.3,4.7-12.9C22.8,20.3,25.4,17.8,27.6,15.6z"/>
</g>
</svg>
