<?xml version="1.0" encoding="utf-8"?>
<!-- Generator: Adobe Illustrator 21.1.0, SVG Export Plug-In . SVG Version: 6.00 Build 0)  -->
<svg version="1.1" id="Layer_1" xmlns="http://www.w3.org/2000/svg" xmlns:xlink="http://www.w3.org/1999/xlink" x="0px" y="0px"
	 viewBox="0 0 64 64" style="enable-background:new 0 0 64 64;" xml:space="preserve">
<style type="text/css">
	.st0{fill:#FFF200;}
	.st1{fill-rule:evenodd;clip-rule:evenodd;fill:#FACC2E;}
	.st2{fill:#314A52;}
</style>
<g id="Sunset">
	<path class="st0" d="M47,38c1.9-2.9,3-6.3,3-10c0-9.9-8.1-18-18-18c-9.9,0-18,8.1-18,18c0,3.7,1.1,7.1,3,10H47z"/>
	<path class="st1" d="M44,40h4c2.5-3.3,4-7.5,4-12c0-11-9-20-20-20c-11,0-20,9-20,20c0,4.5,1.5,8.7,4,12h4c1.1,0,2,0.9,2,2
		c0,1.1-0.9,2-2,2h-2c-1.1,0-2,0.9-2,2c0,1.1,0.9,2,2,2h8c1.1,0,2,0.9,2,2c0,1.1-0.9,2-2,2h-0.5l6.5,9l6.5-9H38c-1.1,0-2-0.9-2-2
		c0-1.1,0.9-2,2-2h8c1.1,0,2-0.9,2-2c0-1.1-0.9-2-2-2h-2c-1.1,0-2-0.9-2-2C42,40.9,42.9,40,44,40z M30,2c0-1.1,0.9-2,2-2
		c1.1,0,2,0.9,2,2v2.1C33.3,4,32.7,4,32,4c-0.7,0-1.3,0-2,0.1V2z M13.7,12.5L12.2,11c-0.8-0.8-0.8-2,0-2.8c0.8-0.8,2-0.8,2.8,0
		l1.5,1.5C15.5,10.5,14.5,11.5,13.7,12.5z M8,28c0,0.7,0,1.3,0.1,2H6c-1.1,0-2-0.9-2-2s0.9-2,2-2h2.1C8,26.7,8,27.3,8,28z M56,28
		c0-0.7,0-1.3-0.1-2H58c1.1,0,2,0.9,2,2c0,1.1-0.9,2-2,2h-2.1C56,29.3,56,28.7,56,28z M47.5,9.7L49,8.2c0.8-0.8,2-0.8,2.8,0
		c0.8,0.8,0.8,2,0,2.8l-1.5,1.5C49.5,11.5,48.5,10.5,47.5,9.7z M16,28c0-8.8,7.2-16,16-16c8.8,0,16,7.2,16,16c0,8.1-6,8.1-13.9,8
		c-0.7,0-1.4,0-2.1,0c-0.7,0-1.4,0-2.1,0C22,36.1,16,36.1,16,28z"/>
	<path class="st2" d="M26,40H0v-4h26V40z M64,36H38v4h26V36z M30,36v20.4L25.5,52L23,55l9,9l9-9l-2.5-3L34,56.4V36H30z"/>
</g>
</svg>
