<?xml version="1.0" encoding="utf-8"?>
<!-- Generator: Adobe Illustrator 21.1.0, SVG Export Plug-In . SVG Version: 6.00 Build 0)  -->
<svg version="1.1" id="Layer_1" xmlns="http://www.w3.org/2000/svg" xmlns:xlink="http://www.w3.org/1999/xlink" x="0px" y="0px"
	 viewBox="0 0 64 64" style="enable-background:new 0 0 64 64;" xml:space="preserve">
<style type="text/css">
	.st0{fill:#FFF200;}
	.st1{fill-rule:evenodd;clip-rule:evenodd;fill:#FACC2E;}
	.st2{fill:#314A52;}
</style>
<g id="Sunrise">
	<path class="st0" d="M47,42c1.9-2.9,3-6.3,3-10c0-9.9-8.1-18-18-18c-9.9,0-18,8.1-18,18c0,3.7,1.1,7.1,3,10H47z"/>
	<path class="st1" d="M48,44L48,44l-4,0c-1.1,0-2,0.9-2,2s0.9,2,2,2h2c1.1,0,2,0.9,2,2s-0.9,2-2,2h-8c-1.1,0-2,0.9-2,2s0.9,2,2,2
		c1.1,0,2,0.9,2,2c0,1.1-0.9,2-2,2H26c-1.1,0-2-0.9-2-2c0-1.1,0.9-2,2-2c1.1,0,2-0.9,2-2s-0.9-2-2-2h-8c-1.1,0-2-0.9-2-2s0.9-2,2-2
		h2c1.1,0,2-0.9,2-2s-0.9-2-2-2h-4l0,0c-2.5-3.3-4-7.5-4-12c0-11,9-20,20-20c11,0,20,9,20,20C52,36.5,50.5,40.7,48,44z M30,8.1
		C30.7,8,31.3,8,32,8c0.7,0,1.3,0,2,0.1V6c0-1.1-0.9-2-2-2c-1.1,0-2,0.9-2,2V8.1z M16.5,13.7L15,12.2c-0.8-0.8-2-0.8-2.8,0
		c-0.8,0.8-0.8,2,0,2.8l1.5,1.5C14.5,15.5,15.5,14.5,16.5,13.7z M8.1,30H6c-1.1,0-2,0.9-2,2s0.9,2,2,2h2.1C8,33.3,8,32.7,8,32
		C8,31.3,8,30.7,8.1,30z M55.9,34H58c1.1,0,2-0.9,2-2c0-1.1-0.9-2-2-2h-2.1c0.1,0.7,0.1,1.3,0.1,2C56,32.7,56,33.3,55.9,34z
		 M50.3,16.5l1.5-1.5c0.8-0.8,0.8-2,0-2.8c-0.8-0.8-2-0.8-2.8,0l-1.5,1.5C48.5,14.5,49.5,15.5,50.3,16.5z M16,32c0-8.8,7.2-16,16-16
		c8.8,0,16,7.2,16,16c0,6.7-4.2,7.8-10,8H26C20.2,39.8,16,38.7,16,32z"/>
	<path class="st2" d="M30,60V39.6L26.5,43L24,40l8-8l8,8l-2.5,3L34,39.6V60H30z M20,40H0v4h20V40z M64,40H44v4h20V40z"/>
</g>
</svg>
