<?xml version="1.0" encoding="utf-8"?>
<!-- Generator: Adobe Illustrator 21.1.0, SVG Export Plug-In . SVG Version: 6.00 Build 0)  -->
<svg version="1.1" id="Layer_1" xmlns="http://www.w3.org/2000/svg" xmlns:xlink="http://www.w3.org/1999/xlink" x="0px" y="0px"
	 viewBox="0 0 64 64" style="enable-background:new 0 0 64 64;" xml:space="preserve">
<style type="text/css">
	.st0{fill:#FACC2E;}
	.st1{fill:#ACBDC5;}
	.st2{fill:#314A52;}
</style>
<g id="Hazy-Night">
	<path class="st0" d="M5.9,26.1c10,0,18.1-8,18.1-17.9c0-1.5-0.2-2.9-0.5-4.2c5.6,2.7,9.5,8.5,9.5,15.1C33,28.5,25.4,36,16,36
		C8.7,36,2.4,31.5,0,25.1C1.9,25.7,3.8,26.1,5.9,26.1z"/>
	<path class="st1" d="M40,22c0-1.1-0.9-2-2-2c-1.1,0-2-0.9-2-2s0.9-2,2-2h12c1.1,0,2,0.9,2,2s-0.9,2-2,2h-4c-1.1,0-2,0.9-2,2
		s0.9,2,2,2h8v4c-1.1,0-2,0.9-2,2s0.9,2,2,2v2h-4v2h-4c-1.1,0-2,0.9-2,2s0.9,2,2,2h14v4H42v8h-4c-1.1,0-2,0.9-2,2c0,1.1,0.9,2,2,2
		c1.1,0,2,0.9,2,2c0,1.1-0.9,2-2,2H26c-1.1,0-2-0.9-2-2c0-1.1,0.9-2,2-2h4c1.1,0,2-0.9,2-2c0-1.1-0.9-2-2-2H10v-4c1.1,0,2-0.9,2-2
		c0-1.1-0.9-2-2-2v-2h12v-8h8V24h8C39.1,24,40,23.1,40,22z M54,48c-1.1,0-2,0.9-2,2s0.9,2,2,2h4c1.1,0,2-0.9,2-2s-0.9-2-2-2H54z"/>
	<path class="st2" d="M26,24h16c1.1,0,2,0.9,2,2s-0.9,2-2,2h-8c-1.1,0-2,0.9-2,2s0.9,2,2,2h24c1.1,0,2,0.9,2,2s-0.9,2-2,2H26
		c-1.1,0-2,0.9-2,2c0,1.1,0.9,2,2,2h24c1.1,0,2,0.9,2,2c0,1.1-0.9,2-2,2h-4c-1.1,0-2,0.9-2,2c0,1.1,0.9,2,2,2c1.1,0,2,0.9,2,2
		c0,1.1-0.9,2-2,2H34c-1.1,0-2-0.9-2-2c0-1.1,0.9-2,2-2h4c1.1,0,2-0.9,2-2c0-1.1-0.9-2-2-2H6c-1.1,0-2-0.9-2-2c0-1.1,0.9-2,2-2h12
		c1.1,0,2-0.9,2-2c0-1.1-0.9-2-2-2h-4c-1.1,0-2-0.9-2-2s0.9-2,2-2h12c1.1,0,2-0.9,2-2s-0.9-2-2-2c-1.1,0-2-0.9-2-2S24.9,24,26,24z
		 M50,24c-1.1,0-2,0.9-2,2c0,1.1,0.9,2,2,2h4c1.1,0,2-0.9,2-2c0-1.1-0.9-2-2-2H50z M58,40c-1.1,0-2,0.9-2,2c0,1.1,0.9,2,2,2h4
		c1.1,0,2-0.9,2-2c0-1.1-0.9-2-2-2H58z M10,48c-1.1,0-2,0.9-2,2c0,1.1,0.9,2,2,2h16c1.1,0,2-0.9,2-2c0-1.1-0.9-2-2-2H10z"/>
</g>
</svg>
