<?xml version="1.0" encoding="utf-8"?>
<!-- Generator: Adobe Illustrator 21.1.0, SVG Export Plug-In . SVG Version: 6.00 Build 0)  -->
<svg version="1.1" id="Layer_1" xmlns="http://www.w3.org/2000/svg" xmlns:xlink="http://www.w3.org/1999/xlink" x="0px" y="0px"
	 viewBox="0 0 64 64" style="enable-background:new 0 0 64 64;" xml:space="preserve">
<style type="text/css">
	.st0{fill-rule:evenodd;clip-rule:evenodd;fill:#ACBDC5;}
	.st1{fill:#FFFFFF;}
	.st2{fill:#FF6C58;}
	.st3{fill:#D7385E;}
	.st4{fill:#314A52;}
</style>
<g id="Windsock">
	<path class="st0" d="M16.2,9.9C17.1,8.9,18.4,8,20,8c0.5,0,1.3,0.1,2.3,0.3c1,0.2,2.4,0.4,4,0.7c3.2,0.6,7.4,1.4,11.8,2.3
		c8.7,1.7,18.3,3.8,22.3,4.8c1.1,0.3,1.7,1.2,2,1.7c0.4,0.6,0.6,1.4,0.8,2.2c0.4,1.6,0.7-0.3,0.7,2.1s-0.2,4.4-0.7,6.1
		c-0.2,0.8-0.5,1.6-0.8,2.2c-0.3,0.5-0.9,1.4-2,1.7c-4.1,1-13.6,3-22.3,4.8c-4.4,0.9-8.6,1.7-11.8,2.3c-1.6,0.3-3,0.5-4,0.7
		c-1,0.2-1.8,0.3-2.3,0.3c-1.6,0-2.9-0.9-3.8-1.9c-0.9-1.1-1.7-2.5-2.3-4.1c-1.2-3.2-1.9-7.4-1.9-12c0-4.6,0.7-4.8,1.9-8
		C14.5,12.4,15.2,11,16.2,9.9z"/>
	<path class="st1" d="M23.2,7.8c0.7-1,1.7-1.8,2.9-1.8c0.3,0,1,0.1,1.8,0.3c0.8,0.2,1.9,0.4,3.1,0.7c2.5,0.5,5.7,1.3,9.1,2.1
		c6.7,1.6,14.1,3.4,17.2,4.4c0.8,0.3,1.3,1.1,1.6,1.6c0.3,0.6,0.5,1.3,0.6,2c0.3,1.5,0.5,3.4,0.5,5.6c0,0.7-0.2,1.4-0.5,1.9
		c-0.2,0.2-0.4,0.5-0.6,0.7c-0.2,0.2-0.7,0.4-1.6,0.5c-3.1,0.3-10.5,0.9-17.2,1.5c-3.4,0.3-6.6,0.5-9.1,0.7
		c-1.2,0.1-2.3,0.2-3.1,0.2c-0.7,0-1.4,0.1-1.8,0.1c-1.2,0-2.2-0.3-2.9-0.6c-0.7-0.3-1.3-0.8-1.8-1.2c-0.9-1-1.4-2.3-1.4-3.7
		c0-4.2,0.5-8.1,1.4-11C21.9,10,22.5,8.7,23.2,7.8z"/>
	<path class="st2" d="M24,22c0-1.5-0.9-4.8-1.9-8.2c-0.2-0.8-0.4-1.5-0.7-2.3c0,0,0-0.1,0-0.1c0.5-1.4,1-2.7,1.8-3.7
		c0.7-1,1.7-1.8,2.9-1.8c0.3,0,1,0.1,1.8,0.3c0.8,0.2,1.9,0.4,3.1,0.7c0.4,0.1,0.8,0.2,1.2,0.3c2.2,2.5,3.8,8,3.8,14.8
		c0,1.9-0.1,3.7-0.3,5.3c-1.7,0.1-3.3,0.3-4.6,0.3c-1.2,0.1-2.3,0.2-3.1,0.2c-0.7,0-1.4,0.1-1.8,0.1c-1.2,0-2.2-0.3-2.9-0.6
		c-0.1,0-0.2-0.1-0.3-0.1C23.5,25.2,24,23.3,24,22z M41.2,9.3C42.8,11.7,44,16.4,44,22v0c0,1.7-0.1,3.2-0.3,4.7
		c2.9-0.2,5.7-0.5,8.1-0.7c0.1-1.3,0.2-2.6,0.2-4c0-4.5-0.7-8.3-1.9-10.5C47.4,10.8,44.3,10,41.2,9.3z"/>
	<path class="st3" d="M27.9,27.9c0.8-0.1,1.9-0.1,3.1-0.2c1.4-0.1,2.9-0.2,4.6-0.3c-0.8,6.2-3.1,10.5-5.7,11
		c-0.3,0.1-0.7,0.1-1.3,0.3C26.2,39.1,21.7,40,20,40c-0.1-0.3-0.1-0.6-0.1-1c-0.1,0-0.2,0-0.4,0c-4.1,0-7.5-7.6-7.5-17
		c0-9.4,3.4-17,7.5-17c4.1,0,7.5,7.6,7.5,17c0,2.1-0.2,4.1-0.5,6C26.9,28,27.4,27.9,27.9,27.9z M48,34.7c1.7-0.4,3.2-3.8,3.8-8.7
		c-2.4,0.2-5.2,0.4-8.1,0.7c-0.7,5.3-2.4,9-4.4,9.7C43.9,35.5,47.6,34.8,48,34.7z"/>
	<path class="st4" d="M20,4c0.2,0,0.4,0,0.6,0c0.5,0.1,1.1,0.1,1.7,0.2c1,0.2,2.4,0.4,4,0.7c3.2,0.6,7.4,1.4,11.8,2.3
		C46.9,9,56.4,11,60.5,12.1c1.1,0.3,1.7,1.2,2,1.7c0.4,0.6,0.6,1.4,0.8,2.2c0.4,1.6,0.7,3.7,0.7,6.1s-0.2,4.4-0.7,6.1
		c-0.2,0.8-0.5,1.6-0.8,2.2c-0.3,0.5-0.9,1.4-2,1.7l0,0l-3.6,0.8L56,28.9l2.2-0.5c0.6-0.1,1.1-0.5,1.2-1.1c0-0.1,0-0.1,0.1-0.2
		c0.3-1.2,0.5-3,0.5-5.1c0-2.1-0.2-3.8-0.5-5.1c0-0.1,0-0.2-0.1-0.2c-0.2-0.6-0.6-1-1.2-1.1c-4.5-1.1-12.9-2.8-20.8-4.4
		C33,10.3,28.9,9.5,25.7,9c0.1,0.3,0.3,0.7,0.4,1c1.2,3.3,1.9,7.6,1.9,12c0,4.4-0.7,8.7-1.9,12c-0.6,1.6-1.4,3.1-2.3,4.1
		c-0.9,1-2.2,1.9-3.8,1.9c-1.3,0-2.5-0.5-3.4-1c-0.9-0.5-1.6-1.1-2.1-1.6L4,26.8V60H0V22c0,0,0,0,0,0V8h4v9.2L14.6,6.6
		C15,6.1,15.8,5.5,16.6,5C17.5,4.5,18.7,4,20,4 M20,8c-0.3,0-0.8,0.1-1.3,0.5c-0.6,0.3-1,0.7-1.2,0.9L4.8,22l12.6,12.6
		c0.2,0.2,0.7,0.6,1.2,0.9c0.6,0.3,1.1,0.5,1.3,0.5c0,0,0.3,0,0.8-0.6c0.5-0.5,1-1.5,1.6-2.8c1-2.7,1.6-6.5,1.6-10.6
		c0-4.1-0.6-7.9-1.6-10.6c-0.5-1.4-1.1-2.3-1.6-2.8C20.4,8.1,20,8,20,8"/>
</g>
</svg>
