<?xml version="1.0" encoding="utf-8"?>
<!-- Generator: Adobe Illustrator 21.1.0, SVG Export Plug-In . SVG Version: 6.00 Build 0)  -->
<svg version="1.1" id="Layer_1" xmlns="http://www.w3.org/2000/svg" xmlns:xlink="http://www.w3.org/1999/xlink" x="0px" y="0px"
	 viewBox="0 0 64 64" style="enable-background:new 0 0 64 64;" xml:space="preserve">
<style type="text/css">
	.st0{fill:#FF6C58;}
	.st1{fill:#FACC2E;}
	.st2{fill:#57CEF3;}
	.st3{fill:#0779E4;}
	.st4{fill:#FFFFFF;}
	.st5{fill:#ACBDC5;}
	.st6{fill:#314A52;}
</style>
<g id="Rainbow">
	<path class="st0" d="M39.2,36.2c1.2,6,1,12.2-0.6,18.2l-7.7-2.1c0.5-2,0.9-4.1,1-6.2c0.3-4.9-0.5-9.8-2.4-14.3
		c-1.9-4.5-4.8-8.6-8.5-11.8c-3.7-3.2-8.1-5.6-12.8-6.9C5.6,12.4,2.8,12,0,12V4c6.1,0,12.2,1.4,17.7,4.1c5.5,2.7,10.3,6.7,14,11.5
		C35.5,24.5,38,30.2,39.2,36.2z"/>
	<path class="st1" d="M33.3,37.4c1,5.1,0.8,10.4-0.5,15.4l-7.7-2.1c0.4-1.6,0.7-3.3,0.8-5c0.3-4-0.4-8-1.9-11.7
		c-1.5-3.7-3.9-7-6.9-9.6c-3-2.6-6.6-4.5-10.4-5.6C4.5,18.3,2.3,18,0,18v-8c5.2,0,10.4,1.2,15,3.5s8.8,5.7,11.9,9.8
		S32.3,32.3,33.3,37.4z"/>
	<path class="st2" d="M27.5,38.5c0.8,4.2,0.7,8.6-0.4,12.7l-7.7-2.1c0.3-1.3,0.6-2.6,0.6-3.9c0.2-3.1-0.3-6.1-1.5-9
		c-1.2-2.8-3-5.4-5.3-7.4s-5-3.5-8-4.3C3.5,24.2,1.7,24,0,24v-8c4.3,0,8.5,1,12.4,2.9s7.2,4.7,9.8,8.1
		C24.8,30.4,26.6,34.3,27.5,38.5z"/>
	<path class="st3" d="M21.6,39.7c0.7,3.3,0.5,6.7-0.3,10l-5.8-1.6c0.3-1,0.4-2,0.5-3.1c0.2-2.4-0.2-4.9-1.2-7.2s-2.4-4.3-4.2-5.9
		s-4-2.8-6.4-3.4C2.8,28.2,1.4,28,0,28v-6c3.4,0,6.7,0.8,9.7,2.3c3,1.5,5.7,3.7,7.7,6.3C19.5,33.3,20.9,36.4,21.6,39.7z"/>
	<path class="st4" d="M54,41v17H20c-5.5,0-10-4.5-10-10c0-5.5,4.5-10,10-10c1.5,0,2.9,0.3,4.1,0.9C25.2,31.6,31.4,26,39,26
		C47.3,26,54,32.7,54,41z"/>
	<path class="st5" d="M20.1,36c-2.1,0-4.2,0.5-6,1.6c-1.8,1-3.4,2.5-4.4,4.4c-1.1,1.8-1.6,3.9-1.6,6c0,2.1,0.5,4.2,1.6,6
		c1,1.8,2.5,3.4,4.4,4.4c1.8,1.1,3.9,1.6,6,1.6L52,60l0-2h2c4.4,0,8-3.6,8-8v-1c0-3.9-3.1-7-7-7h-3c-0.5,7.7-6.7,10-24,10
		c-11,0-16-1.8-16-4c0,0,0,0,0,0c0-1.4,0.4-2.8,1.1-4c0.7-1.2,1.7-2.2,2.9-2.9c1.2-0.7,2.6-1.1,4-1.1c1.4,0,2.8,0.4,4,1.1
		s2.2,1.7,2.9,2.9l3.5-2c-1-1.8-2.5-3.4-4.4-4.4C24.2,36.6,22.2,36,20.1,36z"/>
	<path class="st6" d="M26.4,37.8C27.8,32.2,32.9,28,39,28c7.2,0,13,5.8,13,13c0,0.3,0,0.6,0,0.9L51.8,44l2.1,0l0,0c3.3,0,6,2.7,6,6
		c0,3.3-2.7,6-6,6h-2v4h2c5.5,0,10-4.5,10-10c0-4.8-3.4-8.9-8-9.8c-0.4-9-7.9-16.2-17-16.2c-7.8,0-14.3,5.2-16.3,12.3
		C24,36.6,25.3,37.1,26.4,37.8z"/>
</g>
</svg>
