<?xml version="1.0" encoding="utf-8"?>
<!-- Generator: Adobe Illustrator 21.1.0, SVG Export Plug-In . SVG Version: 6.00 Build 0)  -->
<svg version="1.1" id="Layer_1" xmlns="http://www.w3.org/2000/svg" xmlns:xlink="http://www.w3.org/1999/xlink" x="0px" y="0px"
	 viewBox="0 0 64 64" style="enable-background:new 0 0 64 64;" xml:space="preserve">
<style type="text/css">
	.st0{fill:#ACBDC5;}
	.st1{fill-rule:evenodd;clip-rule:evenodd;fill:#597380;}
	.st2{fill:#314A52;}
</style>
<g id="Foggy">
	<path class="st0" d="M54,20v22H14C7.4,42,2,36.6,2,30c0-6.6,5.4-12,12-12c1.4,0,2.8,0.2,4,0.7C18.7,9.4,26.5,2,36,2
		C45.9,2,54,10.1,54,20z M14,46v8h12v2c1.1,0,2,0.9,2,2s-0.9,2-2,2v4h12v-8h18v-4H38c-1.1,0-2-0.9-2-2s0.9-2,2-2h4v-2H14z M50,60
		c-1.1,0-2,0.9-2,2s0.9,2,2,2h4c1.1,0,2-0.9,2-2s-0.9-2-2-2H50z"/>
	<path class="st1" d="M62,31.1c0-5-4.1-9.1-9.1-9.1h-1C50.4,33.3,36.5,36,24,36c-13.1,0-19.8-2.6-20-5.9c0-1.6,0.4-3.2,1.1-4.7
		c0.8-1.5,1.9-2.8,3.4-3.8c1.4-0.9,3.1-1.5,4.8-1.6c1.7-0.1,3.4,0.2,5,0.9c1.6,0.7,2.9,1.8,3.9,3.2l3.2-2.3
		c-1.4-1.9-3.3-3.5-5.4-4.5c-2.2-1-4.6-1.5-7-1.3c-2.4,0.2-4.7,1-6.7,2.3c-2,1.3-3.6,3.1-4.7,5.3s-1.6,4.5-1.5,6.9
		c0.1,2.4,0.8,4.7,2,6.8c1.2,2,3,3.7,5.1,4.9c2.1,1.2,4.4,1.8,6.8,1.8H52v-2C57.6,41.5,62,36.8,62,31.1z"/>
	<path class="st2" d="M20.2,17.4c-1.2-0.6-2.5-1-3.8-1.2C18.1,7,26.3,0,36,0c11,0,20,9,20,20c0,0.2,0,0.5,0,0.7
		c4.7,1.6,8,6.1,8,11.3c0,6.6-5.4,12-12,12v-4c4.4,0,8-3.6,8-8c0-3.9-2.8-7.2-6.5-7.9l-1.8-0.3l0.2-1.9C52,21.3,52,20.7,52,20
		c0-8.8-7.2-16-16-16C28,4,21.4,9.8,20.2,17.4z M26,36H14c-1.1,0-2,0.9-2,2c0,1.1,0.9,2,2,2h4c1.1,0,2,0.9,2,2c0,1.1-0.9,2-2,2h-8
		c-1.1,0-2,0.9-2,2s0.9,2,2,2c1.1,0,2,0.9,2,2s-0.9,2-2,2H6c-1.1,0-2,0.9-2,2s0.9,2,2,2h28c1.1,0,2,0.9,2,2s-0.9,2-2,2h-8
		c-1.1,0-2,0.9-2,2s0.9,2,2,2h16c1.1,0,2-0.9,2-2s-0.9-2-2-2s-2-0.9-2-2s0.9-2,2-2h4c1.1,0,2-0.9,2-2s-0.9-2-2-2H18
		c-1.1,0-2-0.9-2-2s0.9-2,2-2h24c1.1,0,2-0.9,2-2s-0.9-2-2-2H26c-1.1,0-2-0.9-2-2c0-1.1,0.9-2,2-2c1.1,0,2-0.9,2-2
		C28,36.9,27.1,36,26,36z M34,40h4c1.1,0,2-0.9,2-2s-0.9-2-2-2h-4c-1.1,0-2,0.9-2,2S32.9,40,34,40z M54,56h4c1.1,0,2-0.9,2-2
		s-0.9-2-2-2h-4c-1.1,0-2,0.9-2,2S52.9,56,54,56z M10,64h8c1.1,0,2-0.9,2-2s-0.9-2-2-2h-8c-1.1,0-2,0.9-2,2S8.9,64,10,64z"/>
</g>
</svg>
