<?xml version="1.0" encoding="utf-8"?>
<!-- Generator: Adobe Illustrator 21.1.0, SVG Export Plug-In . SVG Version: 6.00 Build 0)  -->
<svg version="1.1" id="Layer_1" xmlns="http://www.w3.org/2000/svg" xmlns:xlink="http://www.w3.org/1999/xlink" x="0px" y="0px"
	 viewBox="0 0 64 64" style="enable-background:new 0 0 64 64;" xml:space="preserve">
<style type="text/css">
	.st0{fill:#FFFFFF;}
	.st1{fill:#ACBDC5;}
	.st2{fill:#314A52;}
</style>
<g id="Windy">
	<path class="st0" d="M54,21v17H20c-5.5,0-10-4.5-10-10c0-5.5,4.5-10,10-10c1.5,0,2.9,0.3,4.1,0.9C25.2,11.6,31.4,6,39,6
		C47.3,6,54,12.7,54,21z"/>
	<path class="st1" d="M14.1,17.6c1.8-1,3.9-1.6,6-1.6s4.2,0.6,6,1.6c1.8,1.1,3.3,2.6,4.4,4.4l-3.5,2c-0.7-1.2-1.7-2.2-2.9-2.9
		S21.4,20,20,20c-1.4,0-2.8,0.4-4,1.1c-1.2,0.7-2.2,1.7-2.9,2.9c-0.7,1.2-1.1,2.6-1.1,4l0,0c0,2.2,5,4,16,4c17.3,0,23.5-2.3,24-10h3
		c3.9,0,7,3.1,7,7v1c0,4.4-3.6,8-8,8h-2l0,2l-32.1,0c-2.1,0-4.2-0.6-6-1.6c-1.8-1.1-3.3-2.6-4.4-4.4c-1-1.8-1.6-3.9-1.6-6
		c0-2.1,0.6-4.2,1.6-6C10.7,20.1,12.2,18.6,14.1,17.6z M32,54c0,1.1-0.9,2-2,2c-0.6,0-1.1-0.2-1.4-0.6l-2.8,2.8
		c1.1,1.1,2.6,1.8,4.2,1.8c3.3,0,6-2.7,6-6c0-3.3-2.7-6-6-6H4v4h26C31.1,52,32,52.9,32,54z"/>
	<path class="st2" d="M22.7,16.3C24.7,9.2,31.2,4,39,4c9.1,0,16.6,7.2,17,16.2c4.6,0.9,8,5,8,9.8c0,5.5-4.5,10-10,10h-2v-4h2
		c3.3,0,6-2.7,6-6c0-3.3-2.7-6-6-6l0,0l-2.1,0l0.1-2.1c0-0.3,0-0.6,0-0.9c0-7.2-5.8-13-13-13c-6.1,0-11.2,4.2-12.6,9.8
		C25.3,17.1,24,16.6,22.7,16.3z M44,52c0,4.4,3.6,8,8,8c4.4,0,8-3.6,8-8c0-4.4-3.6-8-8-8H12v4h40c2.2,0,4,1.8,4,4s-1.8,4-4,4
		c-2.2,0-4-1.8-4-4H44z M0,44v4h8v-4H0z M4,40h36c4.4,0,8-3.6,8-8c0-4.4-3.6-8-8-8c-4.4,0-8,3.6-8,8h4c0-2.2,1.8-4,4-4
		c2.2,0,4,1.8,4,4c0,2.2-1.8,4-4,4H4V40z"/>
</g>
</svg>
