<?xml version="1.0" encoding="utf-8"?>
<!-- Generator: Adobe Illustrator 21.1.0, SVG Export Plug-In . SVG Version: 6.00 Build 0)  -->
<svg version="1.1" id="Layer_1" xmlns="http://www.w3.org/2000/svg" xmlns:xlink="http://www.w3.org/1999/xlink" x="0px" y="0px"
	 viewBox="0 0 64 64" style="enable-background:new 0 0 64 64;" xml:space="preserve">
<style type="text/css">
	.st0{fill:#ACBDC5;}
	.st1{fill:#FFFFFF;}
	.st2{fill:#597380;}
	.st3{fill:#314A52;}
</style>
<g id="Cyclone">
	<circle class="st0" cx="32" cy="32" r="22"/>
	<path class="st1" d="M31.2,20.4C26.8,22.6,24,27.1,24,32c0,4.4,3.6,8,8,8v4l0.8-0.4C37.2,41.4,40,36.9,40,32c0-4.4-3.6-8-8-8v-4
		L31.2,20.4z"/>
	<path class="st2" d="M43,12h-7c-11,0-20,9-20,20H8C8,14.3,22.3,0,40,0c5.8,0,11.3,1.3,16,4c-4.7,2.7-8.7,6.7-11.5,11.4L43,12z
		 M19.5,48.6C16.7,53.3,12.7,57.3,8,60c4.7,2.7,10.2,4,16,4c17.7,0,32-14.3,32-32h-8c0,11-9,20-20,20h-7L19.5,48.6z"/>
	<path class="st3" d="M8,32C8,14.3,22.3,0,40,0h16v4H40C24.5,4,12,16.5,12,32c0,8.2,4.9,15.3,12,18.3L22.4,54C13.9,50.3,8,41.9,8,32
		z M41.5,10L40,13.7C47,16.8,52,23.8,52,32c0,15.5-12.5,28-28,28H8v4h16c17.7,0,32-14.3,32-32C56,22.2,50,13.7,41.5,10z"/>
</g>
</svg>
