<?xml version="1.0" encoding="utf-8"?>
<!-- Generator: Adobe Illustrator 21.1.0, SVG Export Plug-In . SVG Version: 6.00 Build 0)  -->
<svg version="1.1" id="Layer_1" xmlns="http://www.w3.org/2000/svg" xmlns:xlink="http://www.w3.org/1999/xlink" x="0px" y="0px"
	 viewBox="0 0 64 64" style="enable-background:new 0 0 64 64;" xml:space="preserve">
<style type="text/css">
	.st0{fill:#FACC2E;}
	.st1{fill:#FFFFFF;}
	.st2{fill:#ACBDC5;}
	.st3{fill:#314A52;}
	.st4{fill:#57CEF3;}
</style>
<g id="Partly-Snowy-Night">
	<path class="st0" d="M5.9,22.1c10,0,18.1-8,18.1-17.9c0-1.5-0.2-2.9-0.5-4.2C29.1,2.7,33,8.5,33,15.1C33,24.5,25.4,32,16,32
		C8.7,32,2.4,27.5,0,21.1C1.9,21.7,3.8,22.1,5.9,22.1z"/>
	<path class="st1" d="M54,29v17H20c-5.5,0-10-4.5-10-10c0-5.5,4.5-10,10-10c1.5,0,2.9,0.3,4.1,0.9C25.2,19.6,31.4,14,39,14
		C47.3,14,54,20.7,54,29z"/>
	<path class="st2" d="M20.1,24c-2.1,0-4.2,0.5-6,1.6s-3.4,2.5-4.4,4.4c-1.1,1.8-1.6,3.9-1.6,6c0,2.1,0.5,4.2,1.6,6s2.5,3.4,4.4,4.4
		c1.8,1.1,3.9,1.6,6,1.6L52,48l0-2h2c4.4,0,8-3.6,8-8v-1c0-3.9-3.1-7-7-7h-3c-0.5,7.7-6.7,10-24,10c-11,0-16-1.8-16-4c0,0,0,0,0,0
		c0-1.4,0.4-2.8,1.1-4c0.7-1.2,1.7-2.2,2.9-2.9s2.6-1.1,4-1.1s2.8,0.4,4,1.1c1.2,0.7,2.2,1.7,2.9,2.9l3.5-2c-1-1.8-2.5-3.4-4.4-4.4
		C24.2,24.6,22.2,24,20.1,24z"/>
	<path class="st3" d="M26.4,25.8C27.8,20.2,32.9,16,39,16c7.2,0,13,5.8,13,13c0,0.3,0,0.6,0,0.9L51.8,32l2.1,0l0,0c3.3,0,6,2.7,6,6
		c0,3.3-2.7,6-6,6h-2v4h2c5.5,0,10-4.5,10-10c0-4.8-3.4-8.9-8-9.8c-0.4-9-7.9-16.2-17-16.2c-7.8,0-14.3,5.2-16.3,12.3
		C24,24.6,25.3,25.1,26.4,25.8z"/>
	<path class="st4" d="M46,52c1.1,0,2,0.9,2,2c0,1.1-0.9,2-2,2c-1.1,0-2-0.9-2-2C44,52.9,44.9,52,46,52z M44,62c0,1.1,0.9,2,2,2
		c1.1,0,2-0.9,2-2c0-1.1-0.9-2-2-2C44.9,60,44,60.9,44,62z M32,54c0,1.1,0.9,2,2,2c1.1,0,2-0.9,2-2c0-1.1-0.9-2-2-2
		C32.9,52,32,52.9,32,54z M32,62c0,1.1,0.9,2,2,2c1.1,0,2-0.9,2-2c0-1.1-0.9-2-2-2C32.9,60,32,60.9,32,62z M20,54c0,1.1,0.9,2,2,2
		c1.1,0,2-0.9,2-2c0-1.1-0.9-2-2-2C20.9,52,20,52.9,20,54z M20,62c0,1.1,0.9,2,2,2c1.1,0,2-0.9,2-2c0-1.1-0.9-2-2-2
		C20.9,60,20,60.9,20,62z"/>
</g>
</svg>
