<?xml version="1.0" encoding="utf-8"?>
<!-- Generator: Adobe Illustrator 21.1.0, SVG Export Plug-In . SVG Version: 6.00 Build 0)  -->
<svg version="1.1" id="Layer_1" xmlns="http://www.w3.org/2000/svg" xmlns:xlink="http://www.w3.org/1999/xlink" x="0px" y="0px"
	 viewBox="0 0 64 64" style="enable-background:new 0 0 64 64;" xml:space="preserve">
<style type="text/css">
	.st0{fill:#57CEF3;}
	.st1{fill-rule:evenodd;clip-rule:evenodd;fill:#FFFFFF;}
	.st2{fill:#0779E4;}
</style>
<g id="Snow">
	<path class="st0" d="M30,51v-6.4l-5.3,3.2c-1.1,0.7-2.5-0.1-2.5-1.4v-6.6L16,43.3V52h-4v-6.4L6,49l-2-3.4l5.8-3.3l-4.9-3L7,35.9
		l6.8,4.1l6.1-3.5l-5.1-3.1c-1-0.6-1-2.2,0-2.8l5.1-3.2L13.8,24L7,28.1L5,24.7l4.9-3L4,18.4L6,15l6,3.4V12h4v8.7l6.2,3.5v-6.6
		c0-1.3,1.4-2.1,2.5-1.4l5.3,3.2V13l-7.2-5.4l2.4-3.2L30,8V0h4v8l4.8-3.6l2.4,3.2L34,13v6.4l5.3-3.2c1.1-0.7,2.5,0.1,2.5,1.4v6.6
		l6.2-3.5V12h4v6.4l6-3.4l2,3.4l-5.8,3.3l4.9,3L57,28.1L50.2,24l-6.1,3.5l5.1,3.2c1,0.6,1,2.2,0,2.8l-5.1,3.1l6.1,3.5l6.8-4.1
		l2.1,3.4l-4.9,3l5.8,3.3L58,49l-6-3.4V52h-4v-8.7l-6.2-3.5v6.6c0,1.3-1.4,2.1-2.5,1.4L34,44.6V51l7.2,5.4l-2.4,3.2L34,56v8h-4v-8
		l-4.8,3.6l-2.4-3.2L30,51z"/>
	<path class="st1" d="M36,29.9l-4-2.1l-4,2.1v4.3l4,2.1l4-2.1V29.9z M40,27.5L32,23l-8,4.5v9l8,4.5l8-4.5V27.5z"/>
	<path class="st2" d="M34,42.5c0.4,0.1,0.7,0.3,1.1,0.5l4.9,2.9v-5.5c0-0.5,0.1-1,0.2-1.5l3.8,2.2v8.4c0,1.6-1.7,2.5-3,1.7L34,47
		V42.5z M20,41.1v8.4c0,1.6,1.7,2.5,3,1.7l7-4.2v-4.5c-0.4,0.1-0.7,0.3-1.1,0.5L24,45.9v-5.5c0-0.5-0.1-1-0.2-1.5L20,41.1z
		 M17.6,26.1l-6.8,4.2c-1.3,0.8-1.3,2.6,0,3.4l6.8,4.1l4-2.2c-0.2-0.1-0.3-0.2-0.5-0.3L15.7,32l5.4-3.3c0.2-0.1,0.3-0.2,0.5-0.3
		L17.6,26.1z M30,17l-7-4.2c-1.3-0.8-3,0.2-3,1.7v8.4l3.8,2.2c0.1-0.5,0.2-1,0.2-1.5v-5.5l4.9,2.9c0.3,0.2,0.7,0.4,1.1,0.5V17z
		 M44,22.9v-8.4c0-1.6-1.7-2.5-3-1.7L34,17v4.5c0.4-0.1,0.7-0.3,1.1-0.5l4.9-2.9v5.5c0,0.5,0.1,1,0.2,1.5L44,22.9z M46.4,37.9
		l6.8-4.1c1.3-0.8,1.3-2.6,0-3.4l-6.8-4.2l-4,2.2c0.1,0.1,0.3,0.2,0.5,0.3l5.4,3.3l-5.4,3.3c-0.2,0.1-0.3,0.2-0.5,0.3L46.4,37.9z"/>
</g>
</svg>
